<?xml version="1.0" encoding="UTF-8"?>
<svg version="1.1" viewBox="0 0 1600 1424" width="1280" height="1280" xmlns="http://www.w3.org/2000/svg">
<path transform="translate(0)" d="m0 0h1600v1424h-1600v-1424z" fill="#FB6503"/>
<path transform="translate(856)" d="m0 0h744v1424h-846c2-3 2-3 5.66-3.84 1.61-0.233 3.23-0.451 4.84-0.656 0.864-0.12 1.73-0.241 2.62-0.365 8.83-1.2 17.7-2.19 26.6-3.13 1.07-0.117 2.14-0.233 3.24-0.354 0.957-0.101 1.91-0.203 2.9-0.307 2.16-0.117 2.16-0.117 3.18-1.34 2.57-0.361 5.13-0.667 7.72-0.938 0.773-0.085 1.55-0.17 2.34-0.258 3.32-0.365 6.64-0.72 9.96-1.08 2.42-0.26 4.84-0.526 7.26-0.792 0.757-0.0792 1.51-0.158 2.29-0.24 3.51-0.108 3.51-0.108 6.42-1.7 2.57-0.361 5.13-0.667 7.72-0.938 0.773-0.085 1.55-0.17 2.34-0.258 3.32-0.365 6.64-0.72 9.96-1.08 2.42-0.26 4.84-0.526 7.26-0.792 0.757-0.0792 1.51-0.158 2.29-0.24 3.51-0.108 3.51-0.108 6.42-1.7 2.56-0.362 5.11-0.667 7.68-0.938 0.771-0.085 1.54-0.17 2.34-0.258 2.47-0.272 4.95-0.539 7.42-0.805 2.47-0.266 4.94-0.533 7.41-0.805 1.54-0.169 3.08-0.335 4.62-0.498 3.89-0.381 3.89-0.381 7.54-1.7 2.68-0.354 5.35-0.663 8.04-0.938 1.63-0.174 3.26-0.349 4.89-0.523 2.58-0.271 5.15-0.541 7.73-0.81 2.48-0.26 4.96-0.526 7.44-0.792 0.776-0.0792 1.55-0.158 2.35-0.24 3.58-0.0945 3.58-0.0945 6.55-1.7 2.57-0.361 5.13-0.667 7.72-0.938 0.773-0.085 1.55-0.17 2.34-0.258 3.32-0.365 6.64-0.72 9.96-1.08 2.42-0.26 4.84-0.526 7.26-0.792 0.757-0.0792 1.51-0.158 2.29-0.24 3.51-0.108 3.51-0.108 6.42-1.7 2.42-0.361 4.82-0.667 7.25-0.938 0.726-0.085 1.45-0.17 2.2-0.258 2.33-0.272 4.66-0.539 6.99-0.805 2.33-0.266 4.65-0.533 6.98-0.805 1.45-0.169 2.9-0.335 4.35-0.498 3.74-0.407 3.74-0.407 7.23-1.7 2.61-0.354 5.2-0.662 7.82-0.938 1.58-0.174 3.17-0.349 4.75-0.523 2.5-0.271 5.01-0.541 7.51-0.81 2.41-0.26 4.82-0.526 7.24-0.792 0.754-0.0792 1.51-0.158 2.29-0.24 3.5-0.111 3.5-0.111 6.4-1.7 2.65-0.362 5.28-0.667 7.94-0.938 0.795-0.085 1.59-0.17 2.41-0.258 3.42-0.365 6.83-0.72 10.3-1.08 2.49-0.26 4.98-0.526 7.46-0.792 0.779-0.0792 1.56-0.158 2.36-0.24 3.59-0.0918 3.59-0.0918 6.58-1.7 2.57-0.361 5.13-0.667 7.72-0.938 0.773-0.085 1.55-0.17 2.34-0.258 3.32-0.365 6.64-0.72 9.96-1.08 2.42-0.26 4.84-0.526 7.26-0.792 0.757-0.0792 1.51-0.158 2.29-0.24 3.51-0.108 3.51-0.108 6.42-1.7 2.5-0.361 4.99-0.667 7.5-0.938 0.751-0.085 1.5-0.17 2.28-0.258 3.23-0.365 6.45-0.72 9.68-1.08 2.35-0.261 4.7-0.526 7.05-0.792 0.735-0.0792 1.47-0.158 2.23-0.24 3.43-0.124 3.43-0.124 6.27-1.7 2.72-0.362 5.43-0.668 8.16-0.938 0.817-0.085 1.63-0.17 2.48-0.258 3.51-0.365 7.03-0.72 10.5-1.08 2.56-0.26 5.12-0.526 7.67-0.792 0.801-0.0792 1.6-0.158 2.43-0.24 3.67-0.0758 3.67-0.0758 6.73-1.7 2.49-0.361 4.96-0.667 7.46-0.938 0.749-0.085 1.5-0.17 2.27-0.258 2.4-0.272 4.8-0.539 7.2-0.805 2.4-0.266 4.8-0.533 7.19-0.805 1.49-0.169 2.99-0.335 4.48-0.498 3.81-0.394 3.81-0.394 7.38-1.7 2.59-0.354 5.18-0.662 7.78-0.938 0.769-0.085 1.54-0.17 2.33-0.258 3.3-0.364 6.6-0.719 9.89-1.08 2.4-0.261 4.81-0.526 7.21-0.792 0.749-0.0792 1.5-0.158 2.27-0.24 3.88-0.383 3.88-0.383 7.51-1.7 2.53-0.353 5.06-0.662 7.6-0.938 1.54-0.174 3.08-0.349 4.62-0.523 2.43-0.271 4.86-0.541 7.3-0.81 2.34-0.26 4.68-0.526 7.03-0.792 0.732-0.0792 1.46-0.158 2.22-0.24 3.42-0.127 3.42-0.127 6.25-1.7 1.68-0.233 3.37-0.413 5.06-0.562 1.38-0.126 1.38-0.126 2.79-0.254 0.71-0.0606 1.42-0.121 2.15-0.184 1.29-2.84 2.03-5.21 2.44-8.31 0.541-3.55 1.5-6.31 2.81-9.61 0.751-2.09 1.24-4.1 1.69-6.27 0.728-3.5 1.66-6.85 2.75-10.2 3.48-11.1 6.33-22.3 9.31-33.6 0.239-0.897 0.478-1.79 0.724-2.72 1.93-7.23 3.83-14.5 5.62-21.7 0.224-0.908 0.448-1.82 0.679-2.75 0.428-1.74 0.853-3.49 1.27-5.23 0.985-4.02 2.12-7.75 3.7-11.6 0.657-2.24 1.28-4.49 1.88-6.75 0.171-0.644 0.341-1.29 0.517-1.95 1.5-5.74 2.86-11.5 4.12-17.3 0.766-3.39 1.66-6.58 2.94-9.82 2.25-5.76 3.4-11.8 4.73-17.8 0.206-0.902 0.411-1.8 0.623-2.73 0.18-0.813 0.36-1.63 0.545-2.46 0.638-2.14 0.638-2.14 2.64-5.14 0.709-2.48 1.35-4.93 1.94-7.44 0.174-0.717 0.348-1.43 0.527-2.17 0.516-2.13 1.03-4.26 1.54-6.39 1.5-6.16 3.06-12.3 4.83-18.4 2.05-7.14 3.97-14.3 5.86-21.5 0.774-2.95 1.55-5.89 2.33-8.83 0.6-2.27 1.2-4.55 1.8-6.82 1.82-6.91 3.66-13.8 5.49-20.7 0.313-1.18 0.626-2.36 0.948-3.58 1.86-7 3.81-14 5.81-20.9 1.2-4.19 2.38-8.39 3.55-12.6 0.204-0.728 0.407-1.46 0.617-2.21 0.955-3.43 1.88-6.87 2.73-10.3 1.17-4.75 2.54-9.45 3.91-14.2 2.15-7.48 4.22-15 6.2-22.5 0.891-3.33 1.84-6.63 2.8-9.94 2.08-7.23 3.96-14.5 5.85-21.8 1.49-5.76 3.03-11.5 4.65-17.2 1.59-5.63 3.09-11.3 4.54-16.9 0.169-0.664 0.339-1.33 0.513-2.01 0.699-2.74 1.4-5.48 2.1-8.23 2.25-8.83 4.69-17.6 7.52-26.2 1.09-3.54 1.84-7.04 2.4-10.7 0.656-2.85 1.72-5.48 2.77-8.2 1.35-3.78 2.23-7.67 3.16-11.6 2.18-8.96 4.58-17.8 7.09-26.7 1.84-6.55 3.6-13.1 5.35-19.7 1.71-6.42 3.44-12.8 5.19-19.2 0.257-0.946 0.514-1.89 0.78-2.87 1.44-5.29 2.93-10.6 4.47-15.8 1.34-4.63 2.38-9.24 3.26-14 0.642-2.99 1.63-5.8 2.64-8.69 2.56-7.82 4.44-15.9 6.4-23.9 1.37-5.56 2.78-11 4.69-16.4 2.88-8.6 4.87-17.5 7.12-26.3 7.42-29 7.42-29 11.8-42.9 1.42-4.53 2.46-9 3.32-13.7 0.668-3.14 1.71-6.09 2.78-9.12 0.946-2.91 1.54-5.86 2.16-8.86 0.509-2.16 1.15-4.17 1.9-6.26 2.12-6.26 3.6-12.7 5.16-19.1 3.51-14.5 3.51-14.5 5.87-21.1 0.697-2.12 1.18-4.23 1.63-6.42 0.803-3.83 1.95-7.44 3.22-11.1 2.29-6.92 3.96-14 5.72-21.1 2.77-11.1 5.65-22.2 9.13-33.2 0.895-2.98 1.66-5.98 2.4-9.01 0.89-3.53 1.91-7.03 2.9-10.5 1.94-6.87 3.68-13.8 5.19-20.7 0.934-4.18 2.22-8.04 3.77-12 0.821-2.25 1.28-4.46 1.66-6.82 0.579-3.16 1.3-6.02 2.5-9 1.52-3.77 2.24-7.51 2.97-11.5 0.667-3.16 1.69-6.13 2.75-9.18 2.15-6.38 3.71-12.9 5.21-19.5 1.3-5.65 2.62-11.2 4.38-16.8 2.15-6.78 4.06-13.6 5.94-20.5 0.318-1.14 0.636-2.28 0.964-3.45 0.295-1.09 0.591-2.17 0.895-3.3l0.812-2.95c0.777-3.36 0.777-3.36 0.579-8.86h-552c-2.39 6.26-2.39 6.26-4.32 12.6-0.214 0.801-0.427 1.6-0.647 2.43-0.219 0.837-0.438 1.67-0.663 2.54-0.235 0.884-0.47 1.77-0.713 2.68-0.744 2.8-1.48 5.6-2.22 8.41-0.742 2.81-1.49 5.62-2.23 8.43-0.462 1.74-0.922 3.48-1.38 5.22-1.14 4.3-2.39 8.51-3.83 12.7-0.422 1.49-0.83 2.99-1.22 4.5-0.21 0.806-0.42 1.61-0.637 2.44-0.213 0.824-0.425 1.65-0.645 2.5-2.28 8.8-2.28 8.8-3.48 13-1.09 3.82-2.08 7.66-3.07 11.5-1.97 7.67-3.97 15.3-6.26 22.9-2.77 9.16-5.15 18.4-7.59 27.7-3.01 11.5-6.12 22.9-9.29 34.3-2.05 7.39-4.03 14.8-5.94 22.2-2.04 7.9-4.21 15.8-6.48 23.6-2.58 8.95-4.96 18-7.32 27-2.87 10.9-5.98 21.6-9.07 32.4-135 0.495-135 0.495-272 1-1.13-6.78-1.13-6.78-0.188-11.1 0.171-0.816 0.343-1.63 0.52-2.47 0.702-2.59 1.67-4.97 2.67-7.46 0.594-2.03 1.15-4.08 1.69-6.12 0.166-0.63 0.332-1.26 0.503-1.91 1.15-4.37 2.26-8.74 3.38-13.1 3.13-12.2 6.4-24.4 10-36.5 1.98-6.69 3.72-13.4 5.18-20.2 0.734-3.36 1.7-6.12 3.24-9.17 0.673-2.44 1.29-4.86 1.88-7.31 0.353-1.45 0.707-2.91 1.06-4.36 0.178-0.73 0.356-1.46 0.539-2.21 1.07-4.31 2.24-8.6 3.4-12.9 0.851-3.18 1.68-6.36 2.5-9.54 3.34-13 6.9-25.8 10.6-38.7 1.33-4.59 2.59-9.19 3.81-13.8 1.11-4.2 2.24-8.39 3.42-12.6 2.11-7.47 4.12-14.9 5.83-22.5 1.32-5.82 2.96-11.4 4.93-17 1.63-5.01 2.82-10.1 4.05-15.2 1.02-4.15 2.19-8.23 3.43-12.3 0.749-3.24 0.749-3.24 0.516-9.53-142-0.495-142-0.495-286-1-1.39-2.77-0.647-4.14 0.109-7.13l0.789-3.14 0.852-3.29 0.805-3.21c1.39-5.45 2.92-10.8 4.75-16.1 1.18-3.55 2.09-7.17 3.01-10.8 0.433-1.67 0.866-3.34 1.3-5 0.225-0.865 0.45-1.73 0.682-2.62 1.21-4.61 2.45-9.21 3.7-13.8l0.767-2.82c1.52-5.56 3.13-11.1 4.8-16.6 1.88-6.22 3.42-12.5 4.88-18.8 1.8-7.85 3.96-15.5 6.51-23.1 1.2-3.63 2.26-7.21 3.04-11 0.644-3.06 1.45-5.97 2.48-8.92 1.71-4.95 2.88-9.99 4.03-15.1 1.35-5.97 2.86-11.8 4.86-17.6 0.757-2.29 1.25-4.57 1.64-6.95 2.5-13.2 2.5-13.2 7-17 2.22-0.783 2.22-0.783 4.86-1.36 1.48-0.336 1.48-0.336 3-0.678 1.07-0.231 2.15-0.463 3.26-0.701 1.68-0.375 1.68-0.375 3.39-0.758 3.6-0.802 7.2-1.59 10.8-2.37 2.35-0.521 4.71-1.04 7.06-1.57 4.64-1.03 9.29-2.06 13.9-3.08 6.27-1.38 12.5-2.79 18.8-4.21 0.857-0.194 1.71-0.389 2.6-0.589 5.84-1.33 11.7-2.71 17.5-4.12 8.19-1.97 16.4-3.81 24.6-5.62 8.43-1.86 16.8-3.8 25.2-5.94 5.93-1.5 11.9-2.8 17.9-4.14 5.55-1.25 11.1-2.57 16.6-3.98 6.35-1.62 12.7-2.95 19.2-4.16 3.53-0.737 6.94-1.71 10.4-2.71 2.33-0.52 4.66-1.02 7-1.5 3.61-0.758 7.14-1.54 10.7-2.56 3.82-1.08 7.65-1.74 11.6-2.38 2.78-0.509 2.78-0.509 5.5-1.5 4.17-1.36 8.39-2.2 12.7-3.06 5.6-1.13 11.1-2.42 16.6-4 3.75-0.788 7.51-1.5 11.3-2.22 3.67-0.724 3.67-0.724 7.01-1.73 2.97-0.846 5.9-1.55 8.91-2.2 0.916-0.201 1.83-0.402 2.78-0.609 1.9-0.415 3.81-0.819 5.72-1.21 0.909-0.204 1.82-0.407 2.76-0.617 0.825-0.176 1.65-0.352 2.5-0.533 2.2-0.722 2.2-0.722 3.29-2.85 0.726-1.96 1.29-3.86 1.75-5.91 0.557-2.36 1.15-4.58 1.94-6.88 3.12-9.54 4.96-19.5 7.06-29.2z" fill="#FDFDFD"/>
<path transform="translate(646 789)" d="m0 0c0.819 9.77e-4 1.64 0.00195 2.48 0.00296 0.946-0.00858 1.89-0.0172 2.87-0.026 1.04 0.011 2.08 0.0219 3.15 0.0332 1.1-0.00412 2.21-0.00825 3.35-0.0125 3.72-0.00897 7.44 0.0108 11.2 0.0303 2.66-5.08e-4 5.32-0.00259 7.98-0.00664 6.48-0.00623 13 0.00878 19.4 0.0307 7.54 0.0247 15.1 0.0276 22.6 0.0294 13.5 0.00388 26.9 0.0264 40.4 0.0598 13.1 0.0324 26.1 0.0537 39.2 0.0615 0.805 4.85e-4 1.61 9.71e-4 2.44 0.00147 3.24 0.00193 6.47 0.00384 9.71 0.00572 12.4 0.00752 24.9 0.0232 37.3 0.0405 3.76 0.00524 7.52 0.0102 11.3 0.0144 7.91 0.00891 15.8 0.0207 23.7 0.0416 3.27 0.00862 6.55 0.0152 9.82 0.0185 3.54 0.00396 7.08 0.014 10.6 0.0259 1.05-1.84e-4 2.09-3.69e-4 3.17-5.59e-4 0.941 0.00446 1.88 0.00892 2.85 0.0135 0.818 0.00179 1.64 0.00358 2.48 0.00542 1.85 0.129 1.85 0.129 2.85 1.13 0.319 4.74-0.541 8.7-1.81 13.2-0.505 1.83-0.505 1.83-1.02 3.7-0.83 2.92-1.71 5.82-2.59 8.72-1.83 6.06-3.38 12.2-4.95 18.3-2.53 9.83-5.15 19.6-7.9 29.4-5.57 19.9-11 39.8-16.3 59.8-1.29 4.82-2.59 9.65-3.89 14.5-0.427 1.59-0.853 3.17-1.28 4.76-2.4 8.93-4.88 17.8-7.51 26.7-1.66 5.59-3.17 11.2-4.61 16.8-0.508 1.97-1.02 3.94-1.53 5.91-0.26 1.01-0.52 2.01-0.789 3.05-3.85 14.8-7.9 29.5-12.2 44.2-2.4 8.19-4.52 16.4-6.52 24.7-1.28 5.27-2.69 10.5-4.28 15.6-1.39 4.67-2.6 9.4-3.83 14.1-0.384 1.46-0.384 1.46-0.775 2.96-1.14 4.38-2.23 8.75-3.21 13.2-0.179 0.808-0.358 1.62-0.543 2.45-0.204 0.923-0.204 0.923-0.412 1.86 0.607 0.00174 1.21 0.00347 1.84 0.00526 35.9 0.103 71.9 0.211 108 0.326 4.31 0.0138 8.62 0.0275 12.9 0.0412 0.858 0.00273 1.72 0.00546 2.6 0.00827 13.9 0.0441 27.8 0.0847 41.7 0.124 14.3 0.0404 28.5 0.0846 42.8 0.132 8.81 0.0293 17.6 0.0557 26.4 0.0783 6.03 0.0158 12.1 0.0352 18.1 0.0575 3.49 0.0128 6.97 0.0239 10.5 0.0308 3.77 0.00822 7.54 0.0225 11.3 0.0384 1.11 9.78e-4 2.23 0.00196 3.38 0.00296 1 0.00547 2 0.0109 3.04 0.0166 1.31 0.00399 1.31 0.00399 2.64 0.00805 1.96 0.131 1.96 0.131 2.96 1.13-0.447 7.19-2.16 13.7-4.19 20.6-0.636 2.21-1.27 4.42-1.9 6.64-0.32 1.12-0.639 2.23-0.968 3.38-1.73 6.16-3.32 12.4-4.9 18.6-1.1 4.28-2.25 8.53-3.53 12.8-1.62 5.3-3.01 10.7-4.38 16-2.37 9.27-4.91 18.5-7.48 27.7-1.01 3.6-2 7.21-3 10.8-0.797 2.87-1.59 5.74-2.39 8.62-0.316 1.14-0.316 1.14-0.639 2.3-2.37 8.54-4.75 17.1-7.15 25.6-0.305 1.08-0.305 1.08-0.616 2.18-0.959 3.4-1.92 6.79-2.88 10.2-1.89 6.68-3.69 13.4-5.34 20.1-0.791 3.19-1.69 6.34-2.62 9.49-0.186 1.24-0.371 2.47-0.562 3.75-1.44 3.25-1.44 3.25-5 5-5.37 1.43-10.9 2.3-16.4 3.16-2.92 0.468-5.64 0.932-8.39 2.05-5.09 1.99-10.6 2.59-16 3.54-0.909 0.165-1.82 0.33-2.75 0.5-0.822 0.144-1.64 0.289-2.49 0.438-2.44 0.499-2.44 0.499-4.72 1.51-3.49 1.36-7.06 2.1-10.7 2.85-0.776 0.165-1.55 0.331-2.35 0.501-2.48 0.527-4.96 1.05-7.44 1.57-11.8 2.48-23.5 5.13-35.2 8.12-4.3 1.1-8.59 2.17-12.9 3-0.849 0.165-1.7 0.33-2.57 0.5-1.74 0.335-3.49 0.668-5.23 1-4.56 0.889-8.84 2-13.2 3.5-3.77 0.806-7.55 1.51-11.3 2.22-3.58 0.691-3.58 0.691-6.62 1.78-4.29 1.41-8.67 2.1-13.1 2.86-4.13 0.734-7.95 1.81-11.9 3.14-2.47 0.533-4.95 1.03-7.44 1.5-3.75 0.707-7.39 1.45-11.1 2.5-4.93 1.41-9.94 2.28-15 3.22-3.4 0.652-3.4 0.652-5.99 1.78-3.38 1.34-6.84 1.89-10.4 2.5-5.16 0.888-10.1 2.03-15.1 3.5-3.32 0.848-6.66 1.64-10 2.44-0.921 0.22-1.84 0.439-2.79 0.665-6.63 1.57-13.3 2.97-20 4.22-3.29 0.649-3.29 0.649-6.72 1.68-4.49 1.28-9.03 2.09-13.6 2.93-3.69 1.37-4.14 2.61-5.89 6.07-0.68 2.09-1.28 4.2-1.82 6.32-0.306 1.19-0.612 2.39-0.928 3.62-0.463 1.86-0.463 1.86-0.936 3.75-0.48 1.87-0.48 1.87-0.971 3.78-1.65 5.69-1.65 5.69-2.34 11.5h-745v-315h556c0.66-3.63 1.32-7.26 2-11 0.534-1.89 1.11-3.77 1.75-5.62 2.47-7.67 4.25-15.5 6.06-23.4 1.25-5.36 2.64-10.6 4.45-15.8 1.43-4.35 2.49-8.81 3.62-13.3 1.81-7.04 3.67-14 5.75-21 2.28-7.63 4.36-15.3 6.38-23 0.653-2.49 1.31-4.98 1.96-7.47 0.431-1.64 0.86-3.28 1.29-4.92 0.298-1.14 0.298-1.14 0.602-2.3 0.174-0.664 0.347-1.33 0.526-2.01 0.51-1.89 1.04-3.76 1.58-5.64 0.993-3.5 1.91-7 2.81-10.5 0.332-1.3 0.665-2.61 0.998-3.91 0.171-0.67 0.342-1.34 0.518-2.03 2.72-10.7 5.49-21.3 8.71-31.8 0.743-2.51 1.4-5 2.02-7.54 0.992-3.87 0.992-3.87 1.98-6.3 0.996-2.53 1.63-4.93 2.2-7.59 0.206-0.94 0.411-1.88 0.623-2.85 0.418-1.95 0.835-3.9 1.25-5.85 0.91-4.15 1.81-8.18 3.39-12.1 2.26-5.68 3.5-11.6 4.93-17.6 2.07-8.43 4.19-16.8 6.71-25.1 1.96-6.49 3.72-13 5.48-19.6 0.301-1.12 0.603-2.24 0.913-3.39 1.28-4.77 2.55-9.55 3.75-14.3 0.177-0.693 0.353-1.39 0.535-2.1 0.445-1.76 0.879-3.52 1.31-5.28 1.17-3.49 2.22-6.35 6.02-7.26z" fill="#FDFDFD"/>
<path transform="translate(0)" d="m0 0 557-0.18c53.7-0.00903 53.7-0.00903 78.8-0.0107 18.8-2e-3 37.6-0.0106 56.3-0.0225 19.1-0.0119 38.3-0.0163 57.4-0.0135 11.4 0.00144 22.8-0.0026 34.2-0.0147 7.51-0.00745 15-0.00776 22.5-0.00206 4.28 0.00305 8.57 0.00281 12.9-0.00609 3.9-0.00804 7.79-0.00703 11.7 0.00149 1.41 0.00144 2.82-5.44e-4 4.23-0.00619 1.9-0.00714 3.8-9.38e-4 5.7 0.00607 1.58-4.68e-4 1.58-4.68e-4 3.2-9.45e-4 2.47 0.249 2.47 0.249 4.47 2.25-1.61 0.163-1.61 0.163-3.25 0.33-11.5 1.2-22.9 2.86-34.2 4.73-3.28 0.536-6.56 1.07-9.84 1.6-1.15 0.186-1.15 0.186-2.33 0.376-4.13 0.656-8.25 1.2-12.4 1.58-3.68-0.0609-3.68-0.0609-4.91 1.38-2.31 0.387-4.6 0.718-6.92 1.02-1.48 0.199-2.96 0.397-4.45 0.596-0.786 0.104-1.57 0.208-2.38 0.315-15.1 2-30.1 4.32-45.1 6.87-7.13 1.21-14.3 2.35-21.4 3.45-1.57 0.245-1.57 0.245-3.18 0.494-4.37 0.669-8.72 1.3-13.1 1.74-3.12 0.325-6.13 0.837-9.2 1.48-6.75 1.41-13.6 2.15-20.4 2.98-0.989 0.123-1.98 0.246-3 0.373-0.895 0.108-1.79 0.215-2.71 0.326-2.05 0.15-2.05 0.15-3.07 1.36-2.27 0.359-4.56 0.66-6.84 0.938-1.03 0.127-1.03 0.127-2.07 0.258-2.94 0.365-5.88 0.72-8.82 1.08-2.14 0.261-4.28 0.526-6.42 0.792l-3.9 0.473c-2.82 0.15-2.82 0.15-3.94 1.46-2.27 0.359-4.56 0.66-6.84 0.938-1.03 0.127-1.03 0.127-2.07 0.258-2.94 0.365-5.88 0.72-8.82 1.08-2.14 0.261-4.28 0.526-6.42 0.792l-3.9 0.473c-2.82 0.15-2.82 0.15-3.94 1.46-2.1 0.347-4.2 0.637-6.31 0.902l-3.96 0.51c-1.39 0.176-2.78 0.351-4.17 0.525-7.78 0.98-15.5 1.97-23.2 3.6-5.37 1.06-10.8 1.64-16.2 2.32-4.22 0.551-8.37 1.15-12.5 2.12-5.71 1.33-11.5 2.13-17.3 2.96-1.18 0.173-2.35 0.345-3.57 0.523-8.49 1.24-17 2.41-25.5 3.5-3.9 0.512-7.72 1.11-11.6 2-5.8 1.35-11.7 2.13-17.6 2.97-2.41 0.349-4.82 0.7-7.23 1.05-1.17 0.171-2.35 0.342-3.56 0.518-4.51 0.668-9.02 1.39-13.5 2.12-7.28 1.18-14.6 2.12-21.9 2.95-2.81 0.115-2.81 0.115-3.93 1.43-1.66 0.312-3.32 0.566-4.99 0.797-1.08 0.152-2.16 0.303-3.28 0.46-1.78 0.244-1.78 0.244-3.6 0.493-2.54 0.355-5.07 0.711-7.61 1.07-2.1 0.292-4.19 0.583-6.29 0.874-6.35 0.882-12.7 1.77-19.1 2.66-2.35 0.331-4.71 0.656-7.06 0.982-1.45 0.204-2.9 0.408-4.35 0.612-1.28 0.179-2.57 0.358-3.89 0.542-2.77 0.205-2.77 0.205-3.88 1.51-1.84 0.286-3.68 0.515-5.53 0.719-1.12 0.128-2.24 0.255-3.39 0.387-2.38 0.263-4.77 0.526-7.15 0.789-1.12 0.128-2.24 0.255-3.39 0.387l-3.14 0.346c-2.34 0.124-2.34 0.124-3.39 1.37-1.63 0.297-3.27 0.538-4.91 0.754l-3 0.4-6.32 0.828c-2.59 0.343-5.18 0.682-7.77 1.02-1.64 5.98-3.26 12-4.84 18-1.88 7.06-3.85 14.1-5.85 21.1-4.28 15.1-8.35 30.2-12.4 45.3-3.6 13.6-7.25 27.1-11 40.7-4.16 14.9-8.13 29.9-12.1 44.9-0.562 2.08-1.14 4.16-1.74 6.23-1.44 5.09-2.76 10.2-4.08 15.3-2.04 7.87-4.16 15.7-6.48 23.5-3.83 12.9-7.35 25.9-10.7 38.9-1.78 6.94-3.6 13.9-5.44 20.8-0.487 1.83-0.972 3.67-1.46 5.5-1.69 6.35-3.47 12.7-5.35 18.9-3.08 10.3-5.75 20.8-8.43 31.2-0.643 2.5-1.29 5-1.94 7.5-0.193 0.757-0.385 1.51-0.584 2.29-0.911 3.49-1.93 6.62-3.62 9.81-0.404 1.38-0.762 2.77-1.08 4.18-0.188 0.816-0.376 1.63-0.57 2.47-0.199 0.879-0.397 1.76-0.602 2.66-3.73 16-7.91 31.9-12.5 47.8-2.17 7.52-4.15 15.1-6.07 22.7-1.25 4.88-2.61 9.7-4.12 14.5-2.22 7.12-4.05 14.3-5.87 21.6-2.71 10.7-5.61 21.3-8.75 31.8-2.06 6.96-3.88 14-5.6 21-1.67 6.82-3.58 13.6-5.54 20.3-1.88 6.5-3.62 13-5.3 19.6-2.12 8.24-4.38 16.4-6.75 24.6-1.86 6.44-3.58 12.9-5.25 19.4-2.12 8.24-4.38 16.4-6.75 24.6-1.84 6.38-3.54 12.8-5.19 19.2-2.33 9.1-4.92 18.1-7.6 27.1-1.89 6.43-3.53 12.9-4.98 19.4-1.4 6.14-3.31 12.1-5.27 18-1.97 6.11-3.55 12.2-4.93 18.5-0.875 3.97-1.98 7.76-3.29 11.6-0.479 1.79-0.937 3.58-1.38 5.38l-0.773 3.14c-0.444 1.82-0.888 3.64-1.33 5.46-3.42 14.1-3.42 14.1-5.8 20.8-1.21 3.72-2.07 7.52-2.97 11.3-0.746 2.89-0.746 2.89-1.74 5.85-1.04 3.16-1.79 6.3-2.5 9.54-0.937 4.28-2.1 8.35-3.5 12.5-0.457 1.74-0.894 3.5-1.31 5.25-1.28 5.22-2.68 10.4-4.12 15.6-1.53 5.47-3.04 10.9-4.5 16.4-1.71 6.44-3.44 12.9-5.19 19.3-0.254 0.941-0.508 1.88-0.769 2.85-0.964 3.55-1.93 7.07-3.11 10.5-1.53 4.64-2.67 9.37-3.88 14.1-1.91 7.41-3.93 14.7-6.25 22-1.27 4.27-2.22 8.6-3.16 13-0.733 3.07-1.7 5.99-2.71 8.97-0.52 1.97-1.02 3.95-1.5 5.94-1.08 4.39-2.26 8.72-3.5 13.1-0.504 2.02-1 4.04-1.5 6.06-1 4.06-2.18 7.97-3.5 11.9-0.741 2.85-1.44 5.71-2.15 8.57-0.932 3.75-1.88 7.5-2.85 11.2l-0.938 3.64c-1.11 3.69-2.48 7.04-4.06 10.5h-1v-1104z" fill="#FDFDFD"/>
<path transform="translate(301 1134)" d="m0 0c1.12 3.26e-4 1.12 3.26e-4 2.26 6.59e-4 0.86-0.0046 1.72-0.0092 2.61-0.0139 1.43 0.00772 1.43 0.00772 2.88 0.0156 1.01-0.00241 2.01-0.00483 3.05-0.00732 3.39-0.00566 6.78 0.00305 10.2 0.0116 2.42-0.00107 4.84-0.00301 7.27-0.00575 5.91-0.00436 11.8 6.08e-4 17.7 0.00985 6.87 0.0104 13.7 0.0103 20.6 0.00983 12.3-5.01e-4 24.5 0.00867 36.8 0.0232 11.9 0.0141 23.8 0.0212 35.7 0.0205 0.734-4e-5 1.47-7.99e-5 2.22-1.21e-4 0.732-4.04e-5 1.46-8.07e-5 2.22-1.22e-4 13.5-6.89e-4 27.1 0.0052 40.6 0.0142 4.8 0.00302 9.6 0.00408 14.4 0.00453 6.45 7.52e-4 12.9 0.00708 19.4 0.0172 2.37 0.00293 4.75 0.00415 7.12 0.00357 3.23-4.87e-4 6.45 0.00513 9.68 0.0124 0.953-0.00155 1.91-0.0031 2.89-0.00469 6.44 0.0242 6.44 0.0242 7.56 1.14 0.462 5.66-0.866 9.87-3 15-0.742 1.89-1.47 3.79-2.19 5.69-0.344 0.891-0.688 1.78-1.04 2.7-0.789 2.68-0.915 4.84-0.77 7.61 2.86 0.955 4.63 1.12 7.6 1.12 0.95 0.00199 1.9 0.00398 2.88 0.00603 1.57-0.00437 1.57-0.00437 3.17-0.00883 1.11 8.54e-4 2.22 0.00171 3.36 0.00259 3.74 0.00165 7.47-0.00387 11.2-0.00932 2.67-2.82e-4 5.34-1.68e-4 8.01 4.43e-4 5.76 5.25e-4 11.5-0.00262 17.3-0.00824 8.33-0.00812 16.7-0.0107 25-0.012 13.5-0.00219 27-0.00885 40.5-0.0183 13.1-0.00918 26.2-0.0163 39.4-0.0205 0.809-2.63e-4 1.62-5.25e-4 2.45-7.96e-4 4.06-0.00131 8.11-0.00257 12.2-0.00381 33.7-0.0104 67.3-0.028 101-0.0503 0.639-2.06 1.28-4.13 1.91-6.19 0.355-1.15 0.711-2.3 1.08-3.48 0.829-2.73 1.63-5.46 2.39-8.2 0.199-0.712 0.398-1.42 0.604-2.16 0.397-1.43 0.787-2.86 1.17-4.29 1.8-6.34 1.8-6.34 4.85-8.67 2.08-0.374 2.08-0.374 4.52-0.372 1.4-0.00988 1.4-0.00988 2.82-0.02 1.03 0.00806 2.05 0.0161 3.11 0.0244 1.63-0.0049 1.63-0.0049 3.3-0.00991 3.66-0.00731 7.33 0.00691 11 0.021 2.62-7.9e-4 5.24-0.00289 7.86-0.0062 6.39-0.00564 12.8 0.00469 19.2 0.0203 7.43 0.0175 14.9 0.019 22.3 0.0196 13.3 0.00169 26.5 0.0175 39.8 0.0415 12.9 0.0233 25.7 0.0374 38.6 0.041 0.793 2.23e-4 1.59 4.46e-4 2.4 6.75e-4 1.6 4.43e-4 3.2 8.85e-4 4.79 0.00133 1.18 3.29e-4 1.18 3.29e-4 2.39 6.65e-4 1.18 3.24e-4 1.18 3.24e-4 2.38 6.55e-4 12.3 0.0037 24.5 0.0151 36.8 0.0275 4.45 0.00444 8.9 0.00788 13.3 0.0106 7.71 0.00484 15.4 0.0149 23.1 0.0308 2.57 0.00454 5.13 0.00737 7.7 0.00841 3.49 0.00173 6.97 0.00959 10.5 0.0191 1.55-0.0013 1.55-0.0013 3.12-0.00263 0.927 0.00384 1.85 0.00768 2.81 0.0116 0.806 0.00125 1.61 0.00249 2.44 0.00378 1.83 0.128 1.83 0.128 2.83 1.13 0.0871 7.84-2.3 15.4-4.4 22.8-0.649 2.35-1.26 4.72-1.87 7.08-0.215 0.835-0.43 1.67-0.651 2.53-0.416 1.62-0.83 3.24-1.24 4.86-0.938 3.62-1.96 7.12-3.32 10.6-1.86 4.8-3.01 9.73-4.2 14.7-2.22 9.06-4.52 18.1-6.92 27.1-0.502 1.89-1 3.78-1.5 5.66-1.86 6.97-3.87 13.9-6.02 20.8-1.03 3.33-1.94 6.66-2.81 10-1.48 5.62-3 11.2-4.56 16.8-2.23 7.98-4.38 16-6.5 24l-2.67 0.586c-1.16 0.26-2.32 0.521-3.52 0.789-1.15 0.255-2.3 0.51-3.48 0.773-3.23 0.745-3.23 0.745-5.8 1.86-3.25 1.27-6.48 1.85-9.91 2.49-3.65 0.684-7.22 1.38-10.8 2.41-5.56 1.59-11.2 2.82-16.8 4.09-1.8 0.412-1.8 0.412-3.65 0.832-3.83 0.872-7.65 1.74-11.5 2.61-0.673 0.152-1.35 0.305-2.04 0.462-9.02 2.04-18.1 4.05-27.1 5.86-4.02 0.819-7.82 1.94-11.7 3.24-2.73 0.552-5.47 0.995-8.22 1.44-2.82 0.509-2.82 0.509-5.62 1.53-4.36 1.42-8.81 2.12-13.3 2.89-2.85 0.504-5.52 1.02-8.21 2.11-4.04 1.59-8.24 2.23-12.5 3.03-5.81 1.1-11.4 2.35-17.1 4-2.81 0.536-5.62 0.99-8.45 1.44-2.5 0.431-2.5 0.431-4.36 1.53-3.35 1.58-6.93 1.96-10.6 2.53-5.08 0.803-9.74 1.82-14.6 3.5-2.28 0.492-4.58 0.948-6.88 1.38-5.93 1.14-11.8 2.5-17.6 4-6.83 1.74-13.7 3.28-20.6 4.79-4.4 0.978-8.71 2.05-13 3.39-4.51 1.39-8.98 2.28-13.6 3.01-4.96 0.782-9.48 1.83-14.2 3.44-3.38 0.676-6.77 1.28-10.2 1.86-3.86 0.682-7.21 1.69-10.8 3.14-2.52 0.528-5.02 1.01-7.56 1.44-5.97 1.06-11.8 2.34-17.7 3.88-3.48 0.868-6.97 1.53-10.5 2.16-2.31 0.475-2.31 0.475-4.58 1.49-3.31 1.28-6.57 1.88-10.1 2.54-3.66 0.687-7.18 1.35-10.7 2.53-4.72 1.36-9.37 1.24-14.2 1.21-1.03 0.00242-2.06 0.00483-3.12 0.00732-3.45 0.00564-6.91-0.00303-10.4-0.0116-2.49 0.00105-4.98 0.00297-7.46 0.00568-6.09 0.00431-12.2-7.23e-4 -18.3-0.00991-7.21-0.0104-14.4-0.00972-21.6-0.00875-13.9 0.00145-27.8-0.00893-41.7-0.0247-12-0.0136-24-0.0228-36-0.0281-85.4-0.0389-171-0.229-293-1.18-1.09-4.62-0.598-7.15 0.938-11.7 0.471-1.43 0.941-2.86 1.41-4.29 0.395-1.19 0.395-1.19 0.797-2.4 1.64-5.04 3.18-10.1 4.73-15.2 0.693-2.25 1.39-4.51 2.08-6.76 3.03-9.89 6.05-19.8 9.05-29.7 0.26-0.858 0.52-1.72 0.789-2.6 3.14-10.4 6.2-20.7 9.12-31.2 1.54-5.47 3.27-10.9 5.09-16.2 3.78-11.5 7.21-23 10.6-34.6 0.195-0.674 0.39-1.35 0.59-2.04 1.57-5.42 3.13-10.8 4.69-16.3 0.675-2.34 1.35-4.68 2.03-7.01 0.522-1.81 0.522-1.81 1.05-3.65 0.771-2.46 1.59-4.81 2.52-7.2 1.83-4.8 3.19-9.7 4.55-14.6 2.79-10 2.79-10 4.4-14.8 1.37-4.03 2.59-8.09 3.79-12.2 0.193-0.654 0.385-1.31 0.584-1.98 0.802-2.72 1.6-5.45 2.39-8.17 0.585-2.01 1.18-4.02 1.77-6.03 0.347-1.19 0.695-2.38 1.05-3.6 1.65-4.65 1.65-4.65 4.83-5.09z" fill="#FB6503"/>
<path transform="translate(942 40.9)" d="m0 0c1.23 0.0025 1.23 0.0025 2.48 0.00505 1.41-7.63e-4 1.41-7.63e-4 2.84-0.00154 1.04 0.00458 2.08 0.00915 3.15 0.0139 1.09 9.01e-4 2.18 0.0018 3.3 0.00273 3.65 0.0043 7.3 0.0158 11 0.0274 2.59 0.00466 5.18 0.00892 7.77 0.0128 6.16 0.0105 12.3 0.0257 18.5 0.0436 4.64 0.0135 9.27 0.0253 13.9 0.0359 17.2 0.0394 34.4 0.0922 51.6 0.151 4.39 0.0149 8.77 0.0296 13.2 0.0442 12.4 0.0413 24.7 0.083 37.1 0.126 0.779 0.00272 1.56 0.00543 2.36 0.00823 0.78 0.00272 1.56 0.00544 2.36 0.00824 1.58 0.0055 3.16 0.011 4.73 0.0165 1.17 0.00409 1.17 0.00409 2.37 0.00827 11.8 0.041 23.6 0.0796 35.3 0.117 121 0.381 121 0.381 179 0.945 3.19 0.0303 6.38 0.0589 9.57 0.0872 4.87 0.0435 9.73 0.0923 14.6 0.146 1.75 0.0187 3.51 0.0357 5.26 0.0511 2.35 0.0211 4.71 0.0483 7.06 0.0774 1.31 0.0138 2.61 0.0277 3.96 0.042 2.88 0.154 2.88 0.154 3.88 1.15-0.218 6.31-1.77 11.6-3.85 17.6-1.99 5.74-3.59 11.6-5.15 17.4-2.04 7.64-4.29 15.1-6.86 22.6-1.5 4.48-2.77 9-4.05 13.6-3.15 11.2-6.61 22.3-10 33.4-1.31 4.26-2.59 8.53-3.86 12.8-2.21 7.38-4.44 14.8-6.69 22.1-1.17 3.83-2.33 7.67-3.5 11.5-0.268 0.883-0.537 1.77-0.813 2.67-0.773 2.55-1.54 5.09-2.31 7.64-0.365 1.21-0.365 1.21-0.737 2.44-1.95 6.5-3.77 13-5.49 19.6-0.893 3.32-1.72 5.76-3.65 8.65-0.616 2.07-1.17 4.16-1.69 6.25-1.77 6.93-3.78 13.8-5.88 20.6-0.293 0.962-0.586 1.92-0.887 2.92-1.55 5.05-3.16 10.1-4.84 15.1-0.71 2.15-1.37 4.32-2.02 6.49-0.207 0.688-0.414 1.38-0.627 2.09-0.422 1.41-0.838 2.82-1.25 4.23-0.545 1.8-1.17 3.57-1.81 5.34-3.42 1.71-7.33 1.14-11.1 1.13-1.43 0.00234-1.43 0.00234-2.89 0.00473-3.22 0.00401-6.43 8.21e-4 -9.65-0.00232-2.3 0.00135-4.6 0.00313-6.89 0.00531-6.26 0.00457-12.5 0.00278-18.8-3.79e-4 -6.55-0.00253-13.1-1.85e-4 -19.6 0.00139-11.7 0.00214-23.4-0.00118-35.1-0.00626-10.6-0.00446-21.2-0.0037-31.8 9.19e-4 -12.3 0.00536-24.6 0.00734-36.9 0.00439-6.52-0.00156-13-0.00177-19.6 0.00154-6.14 0.0029-12.3 8.68e-4 -18.4-0.00489-2.25-0.00132-4.5-9.5e-4 -6.74 0.00126-3.08 0.00275-6.16-7.16e-4 -9.24-0.00568-0.881 0.00223-1.76 0.00446-2.67 0.00676-6.23-0.0194-12.4-0.485-18.6-1.13-1.04-3.6-0.813-5.19 0.625-8.69 1.9-4.93 3.55-9.88 5.06-14.9 0.214-0.692 0.428-1.38 0.649-2.1 1.09-3.68 1.84-7.22 2.23-11 0.0833-0.797 0.167-1.59 0.253-2.42 0.06-0.601 0.12-1.2 0.182-1.82-34.5-0.0458-68.9-0.081-103-0.102-4.07-0.0025-8.13-0.00509-12.2-0.00773-0.809-5.25e-4 -1.62-0.00105-2.45-0.00159-13.1-0.00871-26.2-0.0245-39.3-0.0429-13.5-0.0187-26.9-0.0298-40.4-0.0339-8.3-0.00275-16.6-0.0114-24.9-0.0277-5.69-0.0106-11.4-0.0138-17.1-0.0112-3.29 0.00128-6.57-0.0018-9.86-0.0114-3.56-0.0099-7.12-0.00758-10.7-0.0021-1.04-0.00583-2.09-0.0117-3.16-0.0177-0.952 0.00398-1.9 0.00796-2.88 0.0121-0.822-7.59e-4 -1.64-0.00152-2.49-0.0023-2.52 0.28-4.11 0.884-6.23 2.25-1.16 2.48-1.16 2.48-1.85 5.45-0.294 1.09-0.588 2.19-0.891 3.32-0.437 1.72-0.437 1.72-0.883 3.48-0.595 2.26-1.19 4.51-1.79 6.77-0.386 1.5-0.386 1.5-0.78 3.04-0.536 1.96-1.13 3.9-1.78 5.82-0.802 2.44-1.48 4.83-2.09 7.32-0.309 1.26-0.618 2.51-0.936 3.8-32.1 0.151-64.2 0.296-96.3 0.433-3.8 0.0163-7.59 0.0326-11.4 0.0489-0.756 0.00325-1.51 0.00651-2.29 0.00986-12.2 0.0527-24.4 0.109-36.6 0.167-12.5 0.0593-25.1 0.115-37.6 0.166-7.73 0.0319-15.5 0.0669-23.2 0.106-5.94 0.0297-11.9 0.0537-17.8 0.0757-2.43 0.00985-4.85 0.0215-7.28 0.0351-12.2 0.0675-24.3 0.0611-36.4-1.04-1.21-3.64-0.661-5.1 0.328-8.78 0.458-1.73 0.458-1.73 0.926-3.5l0.996-3.66c0.631-2.36 1.26-4.73 1.89-7.09 0.468-1.74 0.468-1.74 0.945-3.52 1.13-4.29 2.2-8.59 3.25-12.9 0.608-2.33 1.31-4.59 2.1-6.86 1.95-5.67 3.41-11.5 4.93-17.3 4.23-16.1 8.67-32.2 13.3-48.2 2.83-9.85 5.59-19.7 8.23-29.6 0.56-2.07 1.12-4.14 1.68-6.21 0.878-3.25 1.72-6.51 2.52-9.79 0.307-1.17 0.614-2.35 0.93-3.56 0.227-0.937 0.454-1.87 0.688-2.84 2.35-3.99 6.92-4.85 11.2-6 3.52-0.849 7.05-1.65 10.6-2.44 1.32-0.299 2.64-0.599 3.96-0.9 3.47-0.788 6.93-1.57 10.4-2.35 5.51-1.24 11-2.49 16.5-3.74 1.33-0.303 2.67-0.605 4-0.907 8.37-1.89 16.7-3.86 25-5.98 7.46-1.87 15-3.57 22.5-5.29 1.72-0.395 3.43-0.791 5.15-1.19 11.1-2.56 22.2-5.07 33.4-7.5 6.01-1.32 12-2.74 17.9-4.27 3.44-0.84 6.9-1.51 10.4-2.14 2.45-0.503 2.45-0.503 5.14-1.49 4.39-1.41 8.85-2.13 13.4-2.89 3.86-0.682 7.21-1.69 10.8-3.14 2.63-0.548 5.23-1.05 7.88-1.5 5.16-0.888 10.1-2.02 15.1-3.5 2.78-0.701 5.58-1.35 8.38-2 0.751-0.175 1.5-0.35 2.28-0.531 7.61-1.77 15.2-3.48 22.9-4.91 2.54-0.535 2.54-0.535 5.26-1.53 4.35-1.4 8.78-2.12 13.3-2.89 3.01-0.535 5.89-1.13 8.79-2.1 3-0.999 5.97-1.77 9.05-2.48 1.66-0.383 1.66-0.383 3.36-0.773 1.14-0.26 2.29-0.521 3.47-0.789 1.69-0.391 1.69-0.391 3.42-0.789 5.99-1.37 12-2.67 18-3.78 1.83-0.264 1.83-0.264 2.82-1.43 1.41-0.331 2.84-0.611 4.27-0.867 1.32-0.243 1.32-0.243 2.68-0.491 1.42-0.256 1.42-0.256 2.87-0.517 6.94-1.28 13.8-2.67 20.6-4.47 3.35-0.85 6.72-1.5 10.1-2.12 1.94-0.417 3.85-0.935 5.75-1.49 4.5-1.26 9.03-2.13 13.6-2.98 2.81-0.539 5.32-2.01 7.93-2.18z" fill="#FB6503"/>
</svg>
